HIERARCHY
ROOT Bip001_Pelvis
{
  OFFSET 7.937 94.8971 -8.5489
  CHANNELS 6 Xposition Yposition Zposition Zrotation Xrotation Yrotation
  JOINT Bip001_Spine
  {
    OFFSET 1.44608e-005 10.4157 -0.0118244
    CHANNELS 3 Zrotation Xrotation Yrotation
    JOINT Bip001_L_Thigh
    {
      OFFSET 11.2582 -10.4157 0.0118432
      CHANNELS 3 Zrotation Xrotation Yrotation
      JOINT Bip001_L_Calf
      {
        OFFSET -0.720717 -44.8687 0.366937
        CHANNELS 3 Zrotation Xrotation Yrotation
        JOINT Bip001_L_Foot
        {
          OFFSET -0.664439 -41.3745 -3.62995
          CHANNELS 3 Zrotation Xrotation Yrotation
          JOINT Bip001_L_Toe0
          {
            OFFSET 0.0541047 -10.4146 13.4033
            CHANNELS 3 Zrotation Xrotation Yrotation
            End Site
            {
              OFFSET -1.04503e-005 0 7.70137
            }
          }
        }
      }
    }
    JOINT Bip001_R_Thigh
    {
      OFFSET -11.2582 -10.4156 0.0118122
      CHANNELS 3 Zrotation Xrotation Yrotation
      JOINT Bip001_R_Calf
      {
        OFFSET 0.72059 -44.8687 0.36676
        CHANNELS 3 Zrotation Xrotation Yrotation
        JOINT Bip001_R_Foot
        {
          OFFSET 0.664321 -41.3745 -3.62979
          CHANNELS 3 Zrotation Xrotation Yrotation
          JOINT Bip001_R_Toe0
          {
            OFFSET -0.05417 -10.4146 13.4033
            CHANNELS 3 Zrotation Xrotation Yrotation
            End Site
            {
              OFFSET -1.04873e-005 0 7.70137
            }
          }
        }
      }
    }
    JOINT Bip001_Spine1
    {
      OFFSET 1.90638e-005 14.8539 1.10727
      CHANNELS 3 Zrotation Xrotation Yrotation
      JOINT Bip001_Spine2
      {
        OFFSET 2.28934e-005 14.7848 -1.7233
        CHANNELS 3 Zrotation Xrotation Yrotation
        JOINT Bip001_Neck
        {
          OFFSET 2.24514e-005 15.6905 -0.498826
          CHANNELS 3 Zrotation Xrotation Yrotation
          JOINT Bip001_L_Clavicle
          {
            OFFSET 6.17691 -0.000591152 0.00852867
            CHANNELS 3 Zrotation Xrotation Yrotation
            JOINT Bip001_L_UpperArm
            {
              OFFSET 11.773 -0.0611878 0.00197697
              CHANNELS 3 Zrotation Xrotation Yrotation
              JOINT Bip001_L_Forearm
              {
                OFFSET 26.4515 0.0817568 -2.19579
                CHANNELS 3 Zrotation Xrotation Yrotation
                JOINT Bip001_L_Hand
                {
                  OFFSET 32.8677 0.156744 1.67112
                  CHANNELS 3 Zrotation Xrotation Yrotation
                  JOINT Bip001_L_Finger0
                  {
                    OFFSET 6.16268 -2.25226 6.01674
                    CHANNELS 3 Zrotation Xrotation Yrotation
                    End Site
                    {
                      OFFSET 4.30499 -1.46662 0.618148
                    }
                  }
                  JOINT Bip001_L_Finger1
                  {
                    OFFSET 11.2957 -0.718374 -0.201963
                    CHANNELS 3 Zrotation Xrotation Yrotation
                    End Site
                    {
                      OFFSET 6.31952 -0.405163 -0.0802303
                    }
                  }
                }
              }
            }
          }
          JOINT Bip001_R_Clavicle
          {
            OFFSET -6.17691 -0.000574027 0.00851165
            CHANNELS 3 Zrotation Xrotation Yrotation
            JOINT Bip001_R_UpperArm
            {
              OFFSET -11.773 -0.0611516 0.00194365
              CHANNELS 3 Zrotation Xrotation Yrotation
              JOINT Bip001_R_Forearm
              {
                OFFSET -26.4514 0.0822334 -2.19736
                CHANNELS 3 Zrotation Xrotation Yrotation
                JOINT Bip001_R_Hand
                {
                  OFFSET -32.8677 0.156817 1.67144
                  CHANNELS 3 Zrotation Xrotation Yrotation
                  JOINT Bip001_R_Finger0
                  {
                    OFFSET -6.1627 -2.25224 6.0167
                    CHANNELS 3 Zrotation Xrotation Yrotation
                    End Site
                    {
                      OFFSET -4.30499 -1.46662 0.618134
                    }
                  }
                  JOINT Bip001_R_Finger1
                  {
                    OFFSET -11.2958 -0.718344 -0.201994
                    CHANNELS 3 Zrotation Xrotation Yrotation
                    End Site
                    {
                      OFFSET -6.31952 -0.405146 -0.0802475
                    }
                  }
                }
              }
            }
          }
          JOINT Bip001_Head
          {
            OFFSET 1.11782e-005 11.4912 2.09908
            CHANNELS 3 Zrotation Xrotation Yrotation
            End Site
            {
              OFFSET 2.95144e-005 21.2823 -2.83069e-005
            }
          }
        }
      }
    }
  }
}
MOTION
Frames:	12
Frame Time:	0.04
8.4631 95.2615 -8.60213 -0.187935 -4.49082 -3.16213 0.256107 1.13465 -0.932249 4.96635 -4.4584 10.7352 -0.824464 16.2757 0.226551 -3.00547 -7.42506 1.13972 0.781664 -9.71423 0.850141 -8.88618 -4.77704 1.4884 0.391455 16.0743 3.96424 2.07855 -8.18468 -7.57373 -1.4608 -11.3574 0.519731 0.339749 2.2665 -1.87434 0.339747 2.26648 -1.87433 0.10557 -1.80886 1.71788 -25.8405 8.40745 -15.4075 -50.8724 39.9787 4.46058 14.1313 -0.957044 -30.965 0.699405 -0.13259 -3.36016 3.18055e-015 6.36111e-015 -3.18055e-015 3.18055e-015 7.95139e-015 -3.18055e-015 33.5797 6.40957 8.38501 54.0848 21.001 -22.3306 28.9547 -51.2775 52.4855 1.8162 0.324976 -31.165 -2.38542e-015 0 -1.59028e-015 -2.38542e-015 0 3.18055e-015 -3.29973 -1.76389 2.40035 
8.40626 95.1827 -8.65365 -0.272377 -4.32296 -3.18708 0.30783 1.07233 -1.1521 5.17805 -4.86785 10.755 -1.00738 16.928 0.214978 -2.96043 -7.74335 1.37949 0.80382 -9.71416 0.879067 -8.77495 -5.16773 1.84732 0.385053 16.54 3.6847 2.13509 -8.41073 -7.405 -1.50958 -11.3575 0.508181 0.439817 2.14022 -2.31574 0.440526 2.14019 -2.31571 0.396784 -1.41393 2.63209 -25.5222 8.31664 -16.2969 -51.0314 39.1377 3.98025 14.0483 -0.465924 -30.7147 0.984762 -0.203155 -4.5914 -6.36111e-015 -3.18055e-015 -3.18055e-015 -3.18055e-015 -3.18056e-015 -5.56597e-015 32.5775 4.46458 5.13957 50.6908 11.5832 -21.2756 37.7138 -51.7709 62.5724 3.80676 -2.83436 -27.6312 7.95139e-016 6.36111e-015 -1.98785e-015 3.97569e-016 9.54167e-015 -1.49088e-015 -4.16123 -2.06171 3.55193 
8.4754 95.096 -8.4944 -0.180999 -4.27325 -3.19844 0.333325 1.06055 -1.39382 5.06532 -4.96715 11.5238 -0.816855 17.3426 -0.183137 -2.96846 -8.09669 1.17619 0.803208 -9.68764 0.933506 -8.90472 -5.42757 1.2346 0.0492538 17.1436 4.15717 2.27152 -8.81595 -6.90612 -1.49188 -11.3602 0.485591 0.495997 2.11499 -2.79959 0.496538 2.11499 -2.79954 0.20669 -1.03796 3.92078 -25.0241 8.33185 -17.1635 -52.1019 41.2872 5.34745 14.7196 -2.81305 -31.1139 0.981224 -0.255023 -4.74555 0 0 -7.95139e-016 2.20695e-032 1.59028e-015 -7.95139e-016 31.2895 2.50757 1.9504 47.7862 -0.350394 -20.019 47.0549 -49.4297 73.8206 -0.326161 -3.38917 -26.5219 1.59028e-015 -6.36111e-015 -7.95139e-016 1.59028e-015 0 -1.19271e-015 -4.64073 -2.13731 4.86179 
8.57394 94.9261 -8.38166 -0.282624 -4.1081 -3.01171 0.375957 1.00136 -1.59837 5.15486 -5.58838 11.4642 -0.761906 18.5452 -0.90008 -2.88379 -8.86803 1.74848 0.895204 -9.65136 1.14268 -8.98946 -5.86669 0.513476 -0.0501361 18.0579 3.95612 2.37745 -9.3003 -6.02258 -1.42246 -11.413 0.580337 0.588232 1.99443 -3.20922 0.588233 1.99443 -3.20923 -0.357216 -0.355873 5.43647 -24.4701 8.14868 -18.217 -52.2922 41.4178 5.94348 14.9253 -2.24516 -30.7915 0.6554 -0.234407 -5.07003 -3.18055e-015 -1.59028e-015 2.38542e-015 -3.18055e-015 -1.59028e-015 3.18055e-015 30.9459 0.571057 -0.395927 43.5717 -13.5922 -19.75 48.5264 -42.948 77.7907 -7.71021 -1.75874 -25.3198 1.59028e-015 -7.95139e-016 -6.16232e-015 1.59028e-015 -3.18056e-015 -4.77083e-015 -4.45343 -2.10628 6.15782 
8.71899 94.618 -8.18862 -0.47189 -4.09065 -2.7411 0.396156 0.97941 -1.63933 5.31262 -6.4469 11.1341 -0.639476 20.5291 -2.36771 -2.58547 -10.1829 2.93916 0.973344 -9.54301 1.49516 -8.79236 -6.35452 -0.384077 -0.623638 19.5269 5.17684 2.3214 -10.227 -6.27345 -1.25267 -11.4279 0.410927 0.636373 1.9495 -3.29007 0.636338 1.94955 -3.29021 -0.950162 0.0517699 6.64642 -23.9817 8.20393 -19.2748 -52.0341 41.2199 6.49204 14.5959 -0.99351 -30.3561 0.43408 -0.204332 -5.15569 -2.64834e-031 -4.77083e-015 -3.18055e-015 -4.41391e-031 -6.36111e-015 -3.97569e-015 31.7662 -0.684638 -1.78441 37.4219 -27.2522 -21.9695 41.3824 -30.8131 78.7214 -18.6119 3.52361 -26.2568 -1.98785e-016 0 7.64078e-016 -1.98785e-016 -3.97569e-016 2.24875e-015 -4.50867 -1.89425 7.19499 
8.95383 94.1561 -7.88273 -0.748824 -4.37926 -2.48007 0.382854 1.02935 -1.54378 5.62067 -7.4049 10.7719 -0.545974 23.3989 -2.6678 -2.39179 -11.9013 2.92285 1.01283 -9.51302 1.7532 -8.74787 -6.82145 -0.89587 -0.7573 21.6351 5.65684 2.08526 -11.5114 -6.29157 -0.984572 -11.4594 0.199932 0.656083 2.04984 -3.09714 0.656067 2.04984 -3.09731 -1.42059 0.414064 7.58058 -23.1379 8.0962 -20.2621 -52.9596 42.039 7.84189 14.6509 -1.1068 -29.87 0.0867683 -0.247335 -4.94036 -3.18055e-015 1.59028e-015 1.59028e-015 -6.62086e-032 1.59028e-015 2.38542e-015 31.2893 -1.73704 -3.06282 28.8345 -44.7359 -27.8399 34.1316 -13.2198 82.3435 -26.0797 7.3435 -25.8292 -7.95139e-016 -5.96354e-016 -2.74571e-015 -6.25555e-032 -8.94531e-016 -4.00675e-015 -4.82126 -1.79718 8.04536 
9.09355 93.4009 -7.64622 -1.43366 -4.57199 -1.5915 0.414224 1.06036 -1.47889 6.63403 -9.35342 9.4504 -1.21447 27.8948 -3.25226 -1.5815 -14.3044 3.76411 0.736682 -9.52838 2.07035 -8.15968 -7.65654 -0.790607 -0.720036 24.6639 6.20485 1.31221 -13.3254 -7.53522 -0.509748 -11.481 -0.220036 0.718078 2.11144 -2.96816 0.717203 2.11142 -2.96803 -1.29311 0.95759 8.03152 -23.0959 7.72233 -20.8162 -53.4939 41.3069 9.17751 14.4961 -0.167881 -29.4637 -0.101171 -0.283486 -4.67486 -6.36111e-015 -4.77083e-015 -1.59028e-015 -3.18055e-015 -6.36111e-015 7.95139e-016 30.1983 -2.79176 -4.42403 9.35641 -63.2896 -42.0239 29.5877 5.97226 86.0091 -26.1626 6.23348 -22.4831 -7.95139e-016 7.95139e-016 5.26779e-015 -7.95139e-016 7.95139e-016 7.40473e-015 -5.2386 -1.90468 8.61534 
9.22204 92.493 -7.41214 -2.24958 -4.92362 -0.0638892 0.392835 1.12143 -1.44449 7.72278 -11.4997 7.9846 -1.83602 32.6887 -4.4464 -0.451986 -16.7661 4.92334 0.352416 -9.5049 2.34739 -7.58693 -8.34139 -0.112632 0.285547 27.9537 5.66441 0.0773678 -15.2738 -9.22294 0.081554 -11.5238 -0.649421 0.660751 2.23445 -2.89978 0.66075 2.23443 -2.89978 -0.517631 1.46911 7.88834 -23.6937 7.20492 -20.7811 -54.5341 41.6121 11.4667 14.6787 -1.44476 -29.5908 -0.237292 -0.45518 -3.88105 -1.76556e-031 6.36111e-015 1.59028e-015 -3.18055e-015 3.18056e-015 1.59028e-015 28.6321 -3.50785 -5.53985 -3.53518 -73.5724 -47.1977 21.7958 12.4311 93.9848 -20.4552 4.61047 -19.0062 -0 0 2.48481e-017 -3.97569e-016 -3.97569e-016 -8.69683e-017 -5.63441 -2.20234 8.7842 
9.30759 91.1942 -7.1365 -3.02722 -5.33618 1.79198 0.266441 1.20125 -1.33142 8.84052 -14.1428 6.38161 -2.42721 38.3847 -5.18206 0.644168 -19.6504 5.47845 0.0573377 -9.52919 2.61151 -7.27154 -9.54106 1.21873 2.78678 32.5829 3.72003 -1.7273 -18.1025 -11.1511 0.89622 -11.5785 -1.18696 0.51863 2.39636 -2.67644 0.518629 2.39637 -2.67645 0.580371 1.58779 7.295 -24.08 6.8245 -20.4569 -54.675 39.9323 12.2832 13.7566 -0.785607 -29.1428 -0.809267 -0.541204 -4.15711 3.18055e-015 -6.36111e-015 -0 6.36111e-015 -1.27222e-014 -1.59028e-015 25.6396 -3.75439 -7.17862 -6.94535 -82.7047 -41.6226 12.4438 13.3729 99.8454 -13.717 2.65959 -14.4875 -3.97569e-016 0 2.01269e-015 -1.98785e-016 3.97569e-016 2.4289e-015 -6.01207 -2.07427 8.62596 
9.43199 89.4592 -6.85977 -3.72755 -5.61438 4.05445 0.222964 1.21759 -1.18891 9.43269 -17.4127 6.00768 -1.20798 44.9314 -8.4113 2.15158 -22.8709 6.31263 -0.48001 -9.60463 2.96611 -7.57336 -11.1537 1.79885 6.49199 38.0046 1.15529 -3.85866 -21.4344 -13.1301 1.70573 -11.6713 -1.61784 0.475454 2.43012 -2.40212 0.474897 2.43013 -2.40212 1.52386 2.02545 6.63596 -24.3794 6.31254 -20.8461 -55.6037 38.9555 14.0441 13.0269 -1.10307 -28.8438 -0.850576 -0.265459 -3.91113 -3.18055e-015 0 1.59028e-015 0 0 -0 21.1858 -4.21321 -9.02553 91.3794 -85.6806 66.5586 4.28415 11.1834 102.332 -12.1353 4.18208 -13.653 -3.97569e-016 -3.97569e-016 -3.64024e-015 -3.97569e-016 -3.97569e-016 -1.10574e-015 -6.96817 -2.35817 8.46538 
9.5364 87.6153 -6.59621 -4.42903 -6.24184 6.59773 0.23459 1.3806 -1.11046 9.81782 -20.4743 3.78327 -1.3784 51.0931 -8.38241 3.20665 -25.8853 6.0271 -0.994347 -9.68371 3.20905 -8.08144 -12.2559 0.610562 9.65196 42.9882 -2.35943 -4.9557 -24.73 -12.9344 2.41662 -11.8135 -1.76036 0.528401 2.75581 -2.26307 0.529299 2.75582 -2.26299 2.4332 1.60288 6.11585 -24.5751 6.59857 -20.947 -55.9043 38.574 15.3312 12.6558 -1.55848 -28.7665 -1.90104 -0.354342 -3.01854 -3.18055e-015 -3.18055e-015 -0 -0 -9.54167e-015 -0 14.4239 -3.34142 -10.4465 117.005 -76.5011 98.8525 -3.85112 8.57282 103.051 -15.648 7.95384 -14.9901 1.59028e-015 -2.5842e-015 6.95746e-015 -1.59028e-015 -2.98177e-015 8.74652e-015 -7.90541 -2.00999 8.42833 
9.583 85.4502 -6.30138 -4.81907 -7.04348 8.51213 0.0848416 1.60196 -0.862713 10.0683 -23.2548 2.80925 -0.33485 57.3216 -10.8042 4.81785 -28.9816 6.93759 -1.43256 -9.75225 3.44419 -8.14562 -13.6561 -0.400927 11.6713 48.8104 -6.54281 -4.79867 -28.5813 -11.4844 3.23925 -11.9876 -1.92069 0.284281 3.20161 -1.78593 0.284284 3.2016 -1.78593 2.85695 1.32387 5.61157 -24.6259 6.6887 -20.7718 -54.7621 38.6936 16.0237 13.3208 0.206627 -28.2831 -3.10158 -0.353931 -2.39226 -4.77083e-015 -9.54166e-015 -1.59028e-015 -3.18055e-015 -9.54167e-015 -1.59028e-015 9.38337 -2.31562 -9.56874 118.832 -68.7489 106.469 -9.71273 6.85359 103.406 -15.3013 9.96568 -15.1299 -3.18055e-015 -1.59028e-015 7.95139e-016 -1.59028e-015 -7.95139e-016 3.97569e-015 -7.80574 -2.08765 8.0264 
